<?xml version="1.0" encoding="UTF-8"?>
<svg id="Layer_1" xmlns="http://www.w3.org/2000/svg" xmlns:xlink="http://www.w3.org/1999/xlink" version="1.1" viewBox="0 0 1080 1080">
  <!-- Generator: Adobe Illustrator 29.4.0, SVG Export Plug-In . SVG Version: 2.1.0 Build 152)  -->
  <defs>
    <style>
      .st0, .st1, .st2, .st3, .st4, .st5, .st6 {
        fill-rule: evenodd;
      }

      .st0, .st7 {
        fill: #fff;
      }

      .st1 {
        fill: #ffd300;
      }

      .st2 {
        fill: #3bb54a;
      }

      .st3 {
        fill: #ec1a2d;
      }

      .st4 {
        fill: #00adee;
      }

      .st5 {
        fill: red;
      }

      .st6 {
        fill: url(#linear-gradient);
      }
    </style>
    <linearGradient id="linear-gradient" x1="1094.84" y1="540.5" x2="1118.44" y2="462.49" gradientTransform="translate(1839.12) rotate(-180) scale(.98 -1)" gradientUnits="userSpaceOnUse">
      <stop offset="0" stop-color="#cce000"/>
      <stop offset=".53" stop-color="#80c325"/>
      <stop offset="1" stop-color="#39a949"/>
    </linearGradient>
  </defs>
  <g>
    <g>
      <path class="st7" d="M250.12,754.95v-60.49l-22.72,60.49h-10.22l-22.58-60.49v60.49h-23.12v-89.65h32.12l18.68,50.81,18.82-50.81h32.12v89.65h-23.12Z"/>
      <path class="st7" d="M418.54,754.95l-4.57-13.58h-37.23l-4.57,13.58h-25.14l33.74-89.65h29.03l33.87,89.65h-25.14ZM395.29,685.46l-12.5,36.43h25.14l-12.63-36.43Z"/>
      <path class="st7" d="M557.12,663.82c19.62,0,31.72,9.68,38.31,20.83l-19.36,10.22c-3.63-5.92-10.48-10.62-18.95-10.62-14.65,0-25,11.29-25,25.94s10.35,25.94,25,25.94c6.99,0,13.31-2.42,16.94-5.38v-7.53h-20.57v-19.22h43.28v35.08c-9.68,10.62-22.72,17.47-39.65,17.47-26.75,0-48.52-17.88-48.52-46.37s21.78-46.37,48.52-46.37Z"/>
      <path class="st7" d="M677.55,754.95v-89.65h23.12v89.65h-23.12Z"/>
      <path class="st7" d="M779.44,710.19c0-27.69,20.97-46.37,47.85-46.37,22.31,0,33.87,12.23,39.79,24.06l-19.89,9.41c-2.96-7.12-10.62-13.04-19.89-13.04-13.98,0-24.33,11.29-24.33,25.94s10.35,25.94,24.33,25.94c9.27,0,16.94-5.91,19.89-13.04l19.89,9.41c-5.78,11.56-17.47,24.06-39.79,24.06-26.88,0-47.85-18.82-47.85-46.37Z"/>
    </g>
    <g>
      <path class="st7" d="M191.12,794.6c-1.83,1.77-4.63,2.66-8.39,2.66h-6.19v13.44h-4.2v-32.2h10.4c3.63,0,6.4.88,8.29,2.63,1.89,1.75,2.84,4.02,2.84,6.79s-.92,4.91-2.75,6.68ZM187.91,792.27c1.11-1.02,1.66-2.46,1.66-4.34,0-3.97-2.28-5.96-6.84-5.96h-6.19v11.83h6.19c2.34,0,4.07-.51,5.17-1.52Z"/>
      <path class="st7" d="M225.06,803.54h-14.04l-2.59,7.16h-4.44l11.64-32.02h4.85l11.6,32.02h-4.44l-2.59-7.16ZM223.85,800.12l-5.82-16.26-5.82,16.26h11.64Z"/>
      <path class="st7" d="M248.29,778.5v32.2h-4.2v-32.2h4.2Z"/>
      <path class="st7" d="M287.7,810.7h-4.2l-16.91-25.64v25.64h-4.2v-32.25h4.2l16.91,25.59v-25.59h4.2v32.25Z"/>
      <path class="st7" d="M321.61,778.5v3.42h-8.78v28.78h-4.2v-28.78h-8.82v-3.42h21.81Z"/>
      <path class="st7" d="M337.92,778.5v32.2h-4.2v-32.2h4.2Z"/>
      <path class="st7" d="M377.33,810.7h-4.2l-16.91-25.64v25.64h-4.2v-32.25h4.2l16.91,25.59v-25.59h4.2v32.25Z"/>
      <path class="st7" d="M415.82,787.83c-.89-1.88-2.19-3.33-3.88-4.37-1.69-1.03-3.67-1.55-5.91-1.55s-4.27.52-6.08,1.55-3.22,2.51-4.25,4.43c-1.03,1.93-1.55,4.15-1.55,6.68s.52,4.74,1.55,6.65c1.03,1.91,2.45,3.38,4.25,4.41s3.83,1.55,6.08,1.55c3.14,0,5.73-.94,7.76-2.82s3.22-4.42,3.56-7.62h-12.84v-3.42h17.33v3.23c-.25,2.65-1.08,5.08-2.5,7.28-1.42,2.2-3.28,3.94-5.59,5.22-2.31,1.28-4.88,1.92-7.72,1.92-2.99,0-5.71-.7-8.18-2.1-2.46-1.4-4.41-3.35-5.84-5.84-1.43-2.5-2.15-5.31-2.15-8.46s.72-5.97,2.15-8.48c1.43-2.51,3.38-4.46,5.84-5.87,2.46-1.4,5.19-2.1,8.18-2.1,3.42,0,6.44.85,9.08,2.54,2.63,1.69,4.55,4.08,5.75,7.16h-5.04Z"/>
      <path class="st7" d="M478.28,810.7l-4.2-4.25c-1.57,1.63-3.25,2.84-5.04,3.63-1.79.79-3.8,1.18-6.05,1.18s-4.18-.4-5.89-1.2c-1.71-.8-3.03-1.94-3.97-3.42-.94-1.48-1.41-3.2-1.41-5.17,0-2.25.64-4.23,1.92-5.94,1.28-1.71,3.16-3.06,5.66-4.04-.99-1.17-1.69-2.25-2.13-3.23-.43-.99-.65-2.06-.65-3.23,0-1.36.35-2.58,1.04-3.67.69-1.09,1.69-1.95,2.98-2.56,1.29-.62,2.79-.92,4.48-.92s3.11.32,4.34.97c1.23.65,2.16,1.55,2.77,2.7.62,1.15.89,2.44.83,3.86h-4.2c.03-1.26-.32-2.26-1.06-2.98s-1.69-1.09-2.86-1.09c-1.23,0-2.23.35-2.98,1.04-.75.69-1.13,1.58-1.13,2.66,0,.92.25,1.82.76,2.68s1.36,1.92,2.56,3.19l9.61,9.66.83-1.29,3.14-5.27h4.53l-3.79,6.56c-.52.92-1.14,1.89-1.85,2.91l7.25,7.25h-5.5ZM467.49,806.68c1.34-.65,2.61-1.65,3.81-3l-9.47-9.52c-3.94,1.51-5.91,3.9-5.91,7.16,0,1.82.65,3.33,1.96,4.53,1.31,1.2,3.01,1.8,5.1,1.8,1.66,0,3.17-.32,4.5-.97Z"/>
      <path class="st7" d="M533.05,780.46c2.57,1.31,4.54,3.18,5.91,5.61,1.37,2.43,2.06,5.3,2.06,8.59s-.69,6.15-2.06,8.57c-1.37,2.42-3.34,4.27-5.91,5.54-2.57,1.28-5.61,1.92-9.12,1.92h-10.03v-32.2h10.03c3.51,0,6.55.65,9.12,1.96ZM533.45,803.93c2.19-2.2,3.28-5.29,3.28-9.26s-1.1-7.13-3.3-9.38c-2.2-2.25-5.37-3.37-9.49-3.37h-5.82v25.32h5.82c4.16,0,7.33-1.1,9.52-3.3Z"/>
      <path class="st7" d="M557.7,781.92v10.76h11.74v3.46h-11.74v11.09h13.12v3.46h-17.33v-32.25h17.33v3.46h-13.12Z"/>
      <path class="st7" d="M584.68,786.1c1.42-2.51,3.35-4.47,5.8-5.89,2.45-1.42,5.17-2.12,8.15-2.12,3.51,0,6.58.85,9.19,2.54,2.62,1.69,4.53,4.1,5.73,7.21h-5.04c-.89-1.94-2.18-3.43-3.86-4.48-1.68-1.05-3.69-1.57-6.03-1.57s-4.27.52-6.05,1.57c-1.79,1.05-3.19,2.53-4.2,4.46s-1.52,4.18-1.52,6.77.51,4.8,1.52,6.72c1.02,1.93,2.42,3.41,4.2,4.46s3.8,1.57,6.05,1.57,4.35-.51,6.03-1.55c1.68-1.03,2.96-2.52,3.86-4.46h5.04c-1.2,3.08-3.11,5.46-5.73,7.14-2.62,1.68-5.68,2.52-9.19,2.52-2.99,0-5.71-.7-8.15-2.1-2.45-1.4-4.38-3.35-5.8-5.84-1.42-2.5-2.12-5.31-2.12-8.46s.71-5.97,2.12-8.48Z"/>
      <path class="st7" d="M633.15,808.92c-2.46-1.4-4.41-3.36-5.84-5.87-1.43-2.51-2.15-5.34-2.15-8.48s.72-5.97,2.15-8.48c1.43-2.51,3.38-4.46,5.84-5.87,2.46-1.4,5.19-2.1,8.18-2.1s5.76.7,8.22,2.1c2.46,1.4,4.4,3.35,5.82,5.84,1.42,2.49,2.12,5.33,2.12,8.5s-.71,6.01-2.12,8.5-3.36,4.44-5.82,5.84c-2.46,1.4-5.21,2.1-8.22,2.1s-5.71-.7-8.18-2.1ZM647.4,805.8c1.8-1.05,3.22-2.54,4.25-4.48,1.03-1.94,1.55-4.19,1.55-6.75s-.52-4.84-1.55-6.77c-1.03-1.92-2.44-3.41-4.23-4.46-1.79-1.05-3.82-1.57-6.1-1.57s-4.31.52-6.1,1.57c-1.79,1.05-3.2,2.53-4.23,4.46-1.03,1.92-1.55,4.18-1.55,6.77s.52,4.8,1.55,6.75c1.03,1.94,2.45,3.43,4.25,4.48,1.8,1.05,3.83,1.57,6.08,1.57s4.27-.52,6.08-1.57Z"/>
      <path class="st7" d="M686.92,810.7l-7.67-13.17h-5.08v13.17h-4.2v-32.2h10.4c2.43,0,4.49.42,6.17,1.25,1.68.83,2.93,1.96,3.76,3.37.83,1.42,1.25,3.03,1.25,4.85,0,2.22-.64,4.17-1.92,5.87-1.28,1.69-3.2,2.82-5.75,3.37l8.09,13.49h-5.04ZM674.17,794.16h6.19c2.28,0,3.99-.56,5.13-1.69,1.14-1.12,1.71-2.62,1.71-4.5s-.56-3.39-1.69-4.43c-1.12-1.05-2.84-1.57-5.15-1.57h-6.19v12.2Z"/>
      <path class="st7" d="M724.02,803.54h-14.05l-2.59,7.16h-4.44l11.64-32.02h4.85l11.6,32.02h-4.44l-2.59-7.16ZM722.82,800.12l-5.82-16.26-5.82,16.26h11.64Z"/>
      <path class="st7" d="M762.88,778.5v3.42h-8.78v28.78h-4.2v-28.78h-8.82v-3.42h21.81Z"/>
      <path class="st7" d="M779.19,778.5v32.2h-4.2v-32.2h4.2Z"/>
      <path class="st7" d="M818.6,810.7h-4.2l-16.91-25.64v25.64h-4.2v-32.25h4.2l16.91,25.59v-25.59h4.2v32.25Z"/>
      <path class="st7" d="M857.08,787.83c-.89-1.88-2.19-3.33-3.88-4.37-1.69-1.03-3.67-1.55-5.91-1.55s-4.27.52-6.08,1.55-3.22,2.51-4.25,4.43c-1.03,1.93-1.55,4.15-1.55,6.68s.52,4.74,1.55,6.65c1.03,1.91,2.45,3.38,4.25,4.41s3.83,1.55,6.08,1.55c3.14,0,5.73-.94,7.76-2.82s3.22-4.42,3.56-7.62h-12.84v-3.42h17.33v3.23c-.25,2.65-1.08,5.08-2.5,7.28-1.42,2.2-3.28,3.94-5.59,5.22-2.31,1.28-4.88,1.92-7.72,1.92-2.99,0-5.71-.7-8.18-2.1-2.46-1.4-4.41-3.35-5.84-5.84-1.43-2.5-2.15-5.31-2.15-8.46s.72-5.97,2.15-8.48c1.43-2.51,3.38-4.46,5.84-5.87,2.46-1.4,5.19-2.1,8.18-2.1,3.42,0,6.45.85,9.08,2.54,2.63,1.69,4.55,4.08,5.75,7.16h-5.04Z"/>
    </g>
    <path class="st1" d="M201.79,629.39s96.97-117.84,284.26-87.8c187.28,30.04,278.29,34.87,337.91-45.96,0,0-41.39,103-170.45,112.3-129.06,9.3-309.33-89.41-451.72,21.46"/>
    <path class="st1" d="M647.3,549.47c65.8-4.17,183.71-40.99,137.86-127.63,0,0,36.96,18.74,30.48,54.47-6.49,35.73-50.57,74.81-168.34,73.15"/>
    <path class="st3" d="M237.31,633.4c83.67-86.14,256.34-23.36,360.89-7.03-112.29,5.32-252.06-61.1-360.89,7.03"/>
    <polygon class="st0" points="499.94 333.61 697.49 535.06 654.72 535.06 499.94 377.22 345.16 535.06 302.38 535.06 499.94 333.61"/>
    <path class="st0" d="M504.74,446.17h23.46v23.93h-23.46v-23.93ZM471.68,478.61h23.46v23.93h-23.46v-23.93ZM504.74,478.61h23.46v23.93h-23.46v-23.93ZM471.68,446.17h23.46v23.93h-23.46v-23.93Z"/>
    <path class="st0" d="M545.26,225.4c-4.11,4.19-4.11,10.98,0,15.17,4.11,4.19,10.77,4.19,14.88,0,4.11-4.19,4.11-10.98,0-15.17-4.11-4.19-10.77-4.19-14.88,0M533.21,213.1c-7.96,8.11-10.04,19.96-6.23,30.02,12.76,36.68,54.87,36.17,72.71,59.01,15.41,19.75-9.43,80.34-9.43,80.34l22.05,22.49,109.03-111.13-22.05-22.49s-59.44,25.3-78.79,9.58c-22.39-18.19-21.87-61.12-57.81-74.16-9.87-3.9-21.5-1.79-29.47,6.33Z"/>
    <polygon class="st4" points="668.92 413.73 644.89 438.22 702.6 497.11 726.63 472.61 668.92 413.73"/>
    <polygon class="st2" points="697.25 384.85 673.22 409.35 730.94 468.23 754.97 443.74 697.25 384.85"/>
    <polygon class="st1" points="725.59 355.98 701.56 380.47 759.27 439.35 783.3 414.86 725.59 355.98"/>
    <polygon class="st5" points="753.92 327.1 729.89 351.59 787.6 410.47 811.63 385.98 753.92 327.1"/>
    <polygon class="st0" points="725.33 297.93 616.3 409.06 640.23 433.47 749.26 322.34 725.33 297.93"/>
    <path class="st5" d="M792.69,415.45l25.25-25.75s38.58,33.26,5.61,96.56c3.07-27.3-7.1-55.91-30.86-70.81"/>
    <path class="st6" d="M758.49,449.96l-23.76,25.22s21.57,24.67,2.46,47.03c43.44-20.53,31.86-58.14,21.31-72.24"/>
    <path class="st4" d="M729.66,479.35l-21.85,23.72s7.29,19.21-3.94,32.01c27.27-7.92,46.55-25.4,25.8-55.73"/>
    <polygon class="st0" points="429.45 374.53 252.9 554.57 210.13 554.57 408.07 352.72 429.45 374.53"/>
    <rect class="st7" x="252.9" y="448.09" width="32.17" height="65.02"/>
  </g>
</svg>